<?xml version="1.0" standalone="no"?>
<!DOCTYPE svg PUBLIC "-//W3C//DTD SVG 20010904//EN"
 "http://www.w3.org/TR/2001/REC-SVG-20010904/DTD/svg10.dtd">
<svg version="1.0" xmlns="http://www.w3.org/2000/svg"
 width="960.000000pt" height="960.000000pt" viewBox="0 0 960.000000 960.000000"
 preserveAspectRatio="xMidYMid meet">
<metadata>
Created by potrace 1.11, written by Peter Selinger 2001-2013
</metadata>
<g transform="translate(0.000000,960.000000) scale(0.100000,-0.100000)"
fill="#000000" stroke="none">
<path d="M4425 8820 c-3 -5 -12 -7 -20 -3 -8 3 -15 1 -15 -4 0 -15 25 -63 33
-63 4 0 7 -6 7 -13 0 -7 9 -23 20 -35 12 -12 17 -22 13 -22 -4 0 -1 -6 8 -13
9 -7 17 -16 18 -22 7 -26 37 -65 47 -61 7 3 20 -2 31 -9 17 -14 17 -14 -5 -15
-19 0 -21 -3 -14 -17 9 -15 52 -27 52 -14 0 3 15 7 33 8 74 6 92 18 62 43 -8
7 -15 18 -15 25 0 8 -11 27 -25 43 -14 17 -25 34 -25 39 0 16 -80 136 -87 130
-3 -3 -16 -2 -29 3 -14 6 -26 6 -29 0 -3 -6 -15 -6 -30 0 -15 6 -27 6 -30 0z
m235 -242 c0 -9 -44 -11 -53 -2 -3 3 -3 12 -1 19 4 10 11 10 30 1 13 -6 24
-14 24 -18z"/>
<path d="M4849 8810 c-7 -24 -2 -187 6 -192 6 -5 5 -8 -3 -8 -7 0 -10 -5 -7
-10 4 -6 8 -62 9 -125 1 -92 5 -117 19 -133 9 -10 17 -24 17 -30 0 -7 5 -12
11 -12 5 0 8 -4 4 -9 -3 -5 1 -15 8 -23 17 -18 97 -154 97 -166 0 -5 6 -9 13
-9 9 0 11 21 10 76 -1 42 -3 154 -5 248 -2 95 -7 173 -12 173 -5 0 -4 6 2 13
11 12 8 60 -4 79 -3 4 -1 8 4 8 5 0 7 21 5 48 -3 26 -5 54 -5 62 0 12 -16 15
-84 15 -46 0 -85 -2 -85 -5z"/>
<path d="M5220 8790 c-8 -6 -11 -10 -6 -10 5 0 2 -7 -5 -17 -8 -9 -13 -18 -12
-20 2 -2 9 -16 18 -32 14 -27 13 -30 -8 -45 -12 -10 -16 -14 -9 -11 6 3 3 -9
-8 -29 -18 -30 -19 -34 -4 -32 9 1 24 13 34 26 13 17 19 20 25 10 5 -8 4 -11
-2 -7 -6 4 -15 -5 -22 -19 -14 -32 -14 -34 2 -28 16 6 44 -25 44 -47 0 -11 -8
-15 -24 -13 -13 1 -23 -3 -22 -9 1 -7 1 -21 0 -32 -2 -20 -2 -20 -16 -1 -13
17 -12 22 14 47 17 16 26 32 21 39 -6 10 -9 10 -15 0 -6 -9 -9 -9 -15 0 -6 9
-12 10 -26 1 -17 -9 -17 -10 -1 -11 15 0 15 -2 -4 -21 -11 -11 -18 -27 -15
-34 3 -8 1 -17 -3 -19 -4 -3 -8 -18 -7 -33 1 -15 -5 -35 -13 -43 -10 -10 -10
-15 -2 -18 6 -2 8 -9 4 -15 -4 -7 -9 -23 -10 -37 -4 -35 -10 -65 -13 -65 -1 0
-3 -11 -5 -25 -7 -48 -15 -105 -21 -141 -6 -37 8 -79 26 -79 6 0 10 7 10 15 0
8 -5 15 -12 15 -6 0 -3 6 7 14 10 7 16 20 12 29 -4 10 2 16 19 20 23 4 35 -8
14 -15 -6 -2 -6 -9 0 -17 7 -12 11 -12 24 -2 12 11 15 9 13 -8 -1 -12 -7 -21
-14 -21 -7 0 -13 -5 -13 -11 0 -5 -4 -7 -10 -4 -6 3 -7 -1 -4 -9 6 -15 18 -20
38 -17 5 1 12 -3 16 -9 8 -14 42 -1 37 14 -2 6 2 33 9 61 7 27 11 51 9 53 -2
3 0 13 6 23 7 14 6 19 -3 19 -9 0 -9 3 2 10 8 5 11 10 6 10 -5 0 -4 6 1 13 13
17 10 52 -4 50 -7 -2 -13 2 -13 7 0 6 7 10 16 8 11 -2 18 5 20 17 1 11 4 29 7
41 7 27 -7 49 -25 41 -9 -3 -15 1 -15 10 0 9 7 13 19 10 11 -3 18 0 18 8 0 7
5 15 11 17 7 2 12 23 13 46 0 23 5 42 10 42 4 0 6 14 4 30 -3 17 -1 30 3 30 4
0 6 10 4 22 -3 12 1 26 8 30 9 6 8 8 -3 8 -10 0 -11 3 -4 8 10 6 18 41 27 116
1 12 -5 20 -18 22 -11 1 -31 5 -44 8 -30 7 -51 -14 -51 -51 -1 -24 -2 -26 -11
-10 -8 13 -14 15 -23 8 -10 -8 -12 -5 -11 12 1 14 9 23 23 25 12 2 22 11 22
19 0 9 -3 13 -7 10 -3 -4 -11 -3 -17 3 -7 5 -17 5 -26 0z m114 -82 c-3 -4 -9
-8 -15 -8 -5 0 -9 4 -9 8 0 5 7 9 15 9 8 0 12 -4 9 -9z m-4 -92 c0 -2 -9 -6
-20 -9 -11 -3 -18 -1 -14 4 5 9 34 13 34 5z m-66 -14 c3 -5 -1 -9 -9 -9 -8 0
-12 4 -9 9 3 4 7 8 9 8 2 0 6 -4 9 -8z m42 -124 c4 -7 4 -10 -1 -6 -4 4 -14 3
-22 -3 -13 -11 -19 2 -6 14 10 11 21 8 29 -5z m-51 -17 c3 -5 2 -12 -3 -15 -5
-3 -9 1 -9 9 0 17 3 19 12 6z m-25 -15 c0 -2 -7 -6 -15 -10 -8 -3 -15 -1 -15
4 0 6 7 10 15 10 8 0 15 -2 15 -4z m-35 -73 c-11 -21 -12 -30 -2 -42 10 -12 9
-12 -10 0 -13 8 -18 16 -12 20 6 3 11 10 11 15 1 17 10 34 18 34 5 0 3 -12 -5
-27z m55 -8 c0 -8 -6 -15 -14 -15 -20 0 -29 17 -14 23 22 9 28 7 28 -8z m0
-40 c0 -8 -4 -15 -10 -15 -5 0 -7 7 -4 15 4 8 8 15 10 15 2 0 4 -7 4 -15z m-3
-117 c-3 -8 -6 -5 -6 6 -1 11 2 17 5 13 3 -3 4 -12 1 -19z m3 -103 c0 -8 -7
-15 -15 -15 -13 0 -14 3 -3 15 16 18 18 18 18 0z"/>
<path d="M4147 8783 c-3 -3 -23 -7 -44 -10 -21 -3 -43 -9 -49 -14 -6 -5 -13
-6 -17 -3 -3 3 -14 1 -26 -5 -18 -10 -19 -14 -6 -44 7 -17 14 -36 14 -42 3
-34 15 -82 23 -91 5 -7 8 -16 7 -20 -3 -21 2 -28 11 -14 6 9 10 10 10 3 0 -6
-4 -14 -9 -17 -8 -5 1 -65 16 -106 3 -8 8 -24 10 -35 10 -55 29 -88 89 -151
36 -38 86 -91 110 -119 41 -46 44 -48 44 -24 0 14 -6 31 -12 38 -11 11 -10 12
1 6 10 -6 12 -4 5 6 -4 8 -9 19 -10 24 -1 6 -5 25 -9 44 -3 19 -9 39 -12 44
-3 5 -7 21 -8 36 -2 14 -11 59 -20 100 -9 40 -19 80 -20 90 -2 9 -4 17 -5 19
-2 1 -4 7 -5 12 -1 6 -3 11 -5 13 -1 1 -3 16 -5 32 -2 17 -9 48 -15 70 -6 22
-12 50 -13 62 -2 12 -6 25 -9 28 -4 4 -4 13 -1 21 3 8 0 14 -6 14 -6 0 -8 6
-5 14 5 13 -19 30 -29 19z"/>
<path d="M4382 8665 c1 -53 6 -101 9 -107 5 -8 17 -7 41 2 54 23 57 31 31 75
-13 22 -26 48 -30 58 -3 9 -9 17 -14 17 -5 0 -9 5 -9 11 0 6 -7 17 -15 26 -14
13 -15 5 -13 -82z"/>
<path d="M5419 8753 c0 -4 -2 -15 -5 -23 -2 -8 -8 -37 -13 -65 -9 -54 -1 -69
32 -59 9 3 17 1 17 -5 0 -5 8 -9 18 -9 9 0 28 -2 42 -6 59 -14 110 -23 110
-18 0 2 6 0 13 -5 6 -6 19 -11 27 -11 8 0 31 -3 51 -6 40 -6 40 -7 53 96 5 36
4 37 -29 44 -20 3 -38 11 -41 16 -4 7 -9 6 -13 -1 -5 -7 -14 -7 -31 2 -14 7
-37 12 -52 11 -16 -1 -28 2 -28 5 0 4 -8 7 -17 8 -17 1 -38 5 -91 17 -12 3
-27 8 -32 11 -6 3 -10 3 -11 -2z"/>
<path d="M3655 8681 c-4 -3 -16 -6 -28 -7 -32 -1 -77 -15 -77 -23 0 -4 35 -44
79 -89 43 -45 76 -84 73 -87 -3 -3 2 -5 11 -5 10 0 17 -4 17 -8 0 -5 13 -7 30
-6 16 1 27 -2 24 -7 -3 -5 -12 -9 -20 -9 -11 0 -12 -4 -2 -19 10 -17 15 -18
49 -6 35 13 99 43 108 52 3 2 -5 10 -17 19 -12 8 -22 22 -22 30 0 8 -6 14 -13
14 -6 0 -26 16 -42 36 -82 98 -103 118 -133 120 -17 1 -34 -1 -37 -5z m199
-208 c-24 -17 -44 -16 -44 2 0 11 9 15 31 13 27 -2 28 -4 13 -15z"/>
<path d="M3554 8588 c1 -7 5 -19 9 -25 5 -7 6 -13 4 -13 -7 0 31 -142 40 -150
4 -4 23 3 42 16 19 13 30 24 26 24 -4 0 -3 6 3 13 8 9 -5 29 -53 80 -67 70
-75 75 -71 55z"/>
<path d="M3290 8569 c-19 -11 -35 -26 -35 -34 0 -8 -4 -15 -8 -15 -4 0 -11 0
-16 0 -5 0 -11 7 -13 17 -2 12 -6 10 -17 -10 -12 -22 -12 -30 2 -59 8 -18 25
-58 37 -88 12 -30 26 -60 31 -66 5 -6 6 -14 2 -17 -3 -4 -1 -7 5 -7 7 0 12 -5
12 -10 0 -6 7 -27 17 -48 9 -20 17 -39 17 -42 1 -3 9 -21 18 -40 63 -134 77
-180 56 -180 -5 0 -6 -4 -3 -10 3 -5 -5 -21 -19 -35 -15 -14 -26 -29 -26 -32
0 -15 35 -83 42 -83 4 0 8 -7 8 -16 0 -31 20 -54 38 -45 9 5 29 14 45 22 15 7
27 19 27 27 0 9 3 12 6 9 10 -9 42 36 58 80 20 56 13 167 -14 228 -46 104 -59
132 -91 200 -17 39 -33 72 -34 75 -10 39 -31 78 -38 73 -6 -4 -8 3 -5 15 4 15
2 22 -8 22 -8 0 -14 -5 -14 -11 0 -5 -4 -7 -10 -4 -5 3 -10 11 -10 16 0 6 4 8
9 5 5 -3 11 1 15 9 3 9 -1 15 -11 15 -11 0 -13 3 -5 13 7 8 7 17 -2 30 -16 20
-21 20 -66 -4z m50 -63 c0 -3 -4 -8 -10 -11 -5 -3 -10 -1 -10 4 0 6 5 11 10
11 6 0 10 -2 10 -4z m-105 -16 c3 -6 -1 -7 -9 -4 -18 7 -21 14 -7 14 6 0 13
-4 16 -10z m63 -115 c-3 -3 -9 2 -12 12 -6 14 -5 15 5 6 7 -7 10 -15 7 -18z
m122 -250 c0 -8 -5 -15 -11 -15 -5 0 -8 4 -5 9 4 5 0 12 -6 14 -8 3 -6 6 5 6
9 1 17 -6 17 -14z m0 -245 c0 -5 -5 -10 -11 -10 -5 0 -7 5 -4 10 3 6 8 10 11
10 2 0 4 -4 4 -10z"/>
<path d="M4492 8558 c-7 -9 -21 -14 -31 -11 -10 2 -24 -2 -32 -9 -8 -8 -22
-17 -31 -21 -11 -4 -15 -12 -12 -22 6 -14 32 -14 74 2 8 4 23 7 33 8 9 2 22 3
27 4 13 1 13 31 1 31 -5 0 -11 7 -13 17 -3 14 -4 15 -16 1z"/>
<path d="M4680 8516 c-14 -7 -42 -13 -63 -12 -20 0 -37 -3 -37 -8 0 -12 42
-80 52 -84 5 -2 6 -7 4 -11 -3 -4 7 -21 22 -38 16 -16 26 -35 24 -41 -2 -7 1
-12 7 -12 6 0 11 -4 11 -10 0 -5 13 -29 29 -52 16 -24 28 -46 25 -49 -2 -3 5
-14 16 -24 11 -10 20 -24 20 -32 0 -7 5 -13 10 -13 6 0 10 -5 10 -11 0 -6 14
-30 31 -54 l31 -43 77 0 c76 1 78 1 73 24 -2 13 -8 24 -13 24 -5 0 -15 16 -23
35 -8 19 -20 35 -25 35 -6 0 -10 3 -9 8 2 7 -31 74 -41 82 -3 3 -17 25 -30 50
-13 25 -29 52 -36 60 -7 8 -26 41 -44 73 -18 31 -38 63 -45 70 -7 6 -15 20
-19 30 -8 20 -23 21 -57 3z"/>
<path d="M4506 8491 c-4 -5 -13 -8 -21 -5 -8 3 -20 2 -27 -2 -7 -5 -24 -10
-38 -12 -13 -2 -26 -5 -28 -7 -4 -3 -3 -197 1 -365 l2 -75 91 -2 90 -3 -2 53
c-1 28 -3 88 -4 132 -1 44 -7 86 -14 94 -8 12 -8 13 2 7 9 -5 12 1 10 23 -1
17 -7 31 -13 31 -6 0 -7 3 0 8 14 10 17 32 4 32 -8 0 -8 5 1 15 8 10 9 15 2
15 -6 0 -9 6 -6 13 6 17 -41 62 -50 48z m-56 -65 c0 -2 -7 -7 -16 -10 -8 -3
-12 -2 -9 4 6 10 25 14 25 6z"/>
<path d="M4545 8480 c3 -5 8 -10 11 -10 2 0 4 5 4 10 0 6 -5 10 -11 10 -5 0
-7 -4 -4 -10z"/>
<path d="M6289 8413 c-18 -37 -37 -71 -43 -75 -6 -4 -7 -8 -2 -8 5 0 3 -7 -4
-15 -7 -8 -9 -15 -4 -15 5 0 4 -4 -2 -8 -12 -8 -157 -297 -154 -308 1 -4 -2
-10 -8 -13 -5 -3 -27 -44 -50 -91 -38 -77 -40 -85 -24 -94 9 -6 19 -11 22 -11
3 -1 21 -11 40 -23 19 -12 41 -22 48 -22 6 0 12 -6 12 -12 1 -7 9 -2 20 11 11
12 18 27 15 31 -3 5 -1 10 4 12 12 4 133 248 124 248 -5 0 0 5 9 10 10 6 15
19 13 30 -2 11 0 18 6 15 8 -6 11 2 8 21 0 4 4 10 9 13 12 8 142 270 142 287
0 8 -17 21 -37 29 -21 9 -44 22 -53 29 -8 8 -25 17 -36 20 -19 6 -26 -2 -55
-61z"/>
<path d="M5366 8435 c3 -14 2 -25 -4 -25 -14 0 -24 -61 -12 -75 5 -6 7 -15 3
-18 -3 -4 -2 -7 3 -7 6 0 15 5 22 12 8 8 12 8 12 1 0 -17 32 -27 114 -37 21
-3 41 -7 44 -10 3 -3 11 -1 19 6 11 8 12 7 7 -5 -4 -12 -1 -14 15 -10 12 3 21
1 21 -4 0 -12 42 -11 56 1 5 5 11 19 11 30 1 12 4 38 7 59 5 29 3 37 -9 37 -8
0 -15 4 -15 9 0 6 -8 10 -17 9 -10 0 -45 5 -78 12 -33 7 -71 14 -85 15 -14 2
-25 4 -25 5 0 9 -51 7 -57 -2 -5 -9 -8 -9 -8 -2 0 7 -7 14 -15 18 -12 4 -14 0
-9 -19z m289 -93 c-7 -8 -35 7 -35 18 0 6 7 6 20 -2 10 -7 17 -14 15 -16z
m-285 -2 c0 -5 -2 -10 -4 -10 -3 0 -8 5 -11 10 -3 6 -1 10 4 10 6 0 11 -4 11
-10z"/>
<path d="M3917 8435 c-18 -18 -87 -49 -87 -39 0 4 -7 1 -15 -6 -13 -11 -10
-17 20 -47 19 -19 35 -39 35 -45 0 -5 5 -6 10 -3 6 3 10 2 10 -2 0 -5 38 -49
85 -98 47 -50 85 -93 85 -97 0 -5 7 -8 15 -8 8 0 15 -5 15 -10 0 -15 67 -80
74 -73 3 4 6 -1 6 -10 0 -20 21 -21 105 -3 39 8 60 17 60 27 0 8 -6 13 -13 11
-8 -1 -11 2 -7 8 3 5 1 10 -6 10 -7 0 -10 2 -7 5 3 4 -26 39 -66 80 -72 75
-199 211 -235 253 -12 14 -25 21 -32 16 -7 -4 -9 -3 -6 3 4 6 -2 18 -12 27
-17 15 -20 16 -34 1z"/>
<path d="M2937 8420 c-3 -8 -7 -21 -9 -29 -2 -8 -11 -15 -20 -17 -11 -1 -14 4
-10 19 5 21 5 21 -30 -1 -19 -12 -37 -19 -40 -17 -3 3 -11 -1 -18 -10 -13 -16
-6 -50 9 -41 4 3 8 -5 7 -17 -1 -12 4 -32 12 -44 7 -12 15 -28 16 -35 1 -7 15
-40 30 -73 16 -33 46 -100 68 -150 22 -49 44 -96 50 -102 6 -7 7 -13 4 -13
-12 0 28 -63 65 -102 20 -21 42 -38 49 -38 8 0 10 -3 7 -7 -8 -7 56 -38 102
-48 36 -8 116 9 144 30 15 11 17 17 7 34 -6 12 -16 18 -22 15 -8 -5 -9 -1 -5
10 4 9 -3 37 -15 62 -19 38 -26 44 -46 39 -13 -3 -39 2 -59 12 -29 14 -42 30
-70 89 -18 40 -33 80 -33 88 0 9 -4 16 -9 16 -8 0 -24 37 -22 53 1 4 -4 7 -11
7 -6 0 -9 3 -6 6 3 3 -9 36 -28 74 -18 38 -36 81 -40 95 -3 14 -10 25 -14 25
-8 0 -23 38 -21 53 1 4 -5 7 -13 7 -8 0 -16 6 -19 13 -3 9 -6 8 -10 -3z m-42
-78 c-3 -3 -11 0 -18 7 -9 10 -8 11 6 5 10 -3 15 -9 12 -12z m-34 -65 c-8 -8
-14 -7 -23 2 -9 9 -9 12 -1 7 7 -4 15 3 19 16 7 20 8 21 12 4 2 -10 -1 -23 -7
-29z m361 -439 c-7 -7 -12 -8 -12 -2 0 14 12 26 19 19 2 -3 -1 -11 -7 -17z
m63 12 c-3 -5 -12 -10 -18 -10 -7 0 -6 4 3 10 19 12 23 12 15 0z m25 -51 c0
-5 -4 -9 -10 -9 -5 0 -10 7 -10 16 0 8 5 12 10 9 6 -3 10 -10 10 -16z"/>
<path d="M3713 8418 c4 -11 -3 -14 -28 -12 -26 2 -34 -1 -38 -17 -3 -10 -12
-19 -21 -19 -9 0 -16 -8 -16 -20 0 -26 14 -25 79 8 63 31 69 42 40 61 -19 11
-21 11 -16 -1z"/>
<path d="M6489 8366 c-7 -12 -12 -24 -11 -28 1 -5 -2 -8 -7 -8 -5 0 -12 -13
-16 -30 -4 -16 -11 -30 -17 -30 -6 0 -6 -6 2 -15 7 -8 16 -12 21 -9 5 3 9 2 9
-3 0 -4 21 -19 48 -33 26 -13 51 -30 55 -37 5 -8 12 -11 18 -8 5 3 6 -1 3 -9
-3 -9 -1 -16 5 -16 14 0 10 -41 -7 -82 -24 -57 -90 -61 -184 -10 l-58 30 -15
-20 c-8 -12 -12 -25 -9 -30 3 -4 1 -8 -4 -8 -10 0 -32 -44 -32 -65 0 -8 12
-18 28 -21 15 -4 29 -10 32 -14 3 -3 20 -16 37 -29 31 -21 58 -79 43 -91 -10
-8 -48 -162 -48 -197 -1 -28 4 -33 35 -44 29 -9 37 -9 44 2 5 8 9 9 9 4 0 -6
-6 -17 -12 -24 -10 -11 -10 -13 0 -7 6 4 12 2 12 -5 0 -8 4 -8 15 1 13 11 14
10 9 -4 -3 -9 -2 -16 2 -16 5 0 19 -3 32 -6 21 -6 22 -4 13 19 -5 14 -7 28 -3
31 3 4 7 18 8 32 0 13 7 35 14 49 7 13 10 35 6 49 -9 35 -7 41 10 38 14 -3 18
15 16 66 -1 12 3 20 8 17 6 -4 6 3 0 19 -5 14 -7 26 -5 26 3 0 -1 10 -10 23
-15 23 -14 23 18 25 54 2 67 5 67 14 0 4 4 8 10 8 15 0 60 42 60 57 0 7 4 13
10 13 26 0 40 137 20 190 -1 3 -2 8 -1 13 0 4 -3 7 -9 7 -6 0 -10 6 -10 13 0
7 -15 27 -34 43 -32 28 -48 38 -98 67 -13 6 -25 14 -28 17 -3 3 -23 14 -46 26
l-41 21 -14 -21z m-29 -380 c0 -3 -4 -8 -10 -11 -5 -3 -10 -1 -10 4 0 6 5 11
10 11 6 0 10 -2 10 -4z m130 -222 c0 -8 -19 -13 -24 -6 -3 5 1 9 9 9 8 0 15
-2 15 -3z"/>
<path d="M3724 8358 c-3 -4 -14 -8 -25 -8 -11 0 -17 -4 -14 -10 3 -5 -2 -10
-12 -10 -10 0 -26 -6 -35 -14 -16 -11 -16 -18 -3 -73 8 -33 16 -71 18 -84 3
-13 10 -44 17 -69 13 -49 21 -83 25 -115 2 -11 4 -20 5 -20 1 0 3 -11 6 -25
10 -57 8 -56 119 -34 17 3 37 7 45 9 10 1 14 13 13 36 -2 46 -14 103 -21 109
-4 3 -8 16 -10 30 -3 32 -9 64 -12 68 -1 1 -3 5 -4 10 -8 33 -17 73 -21 102
-4 19 -9 37 -13 40 -7 5 -13 24 -15 51 -1 17 -53 23 -63 7z m-37 -84 c-3 -3
-12 -4 -19 -1 -8 3 -5 6 6 6 11 1 17 -2 13 -5z"/>
<path d="M2513 8152 c-13 -2 -23 -8 -23 -13 0 -6 -4 -8 -9 -4 -12 7 -91 -33
-91 -46 0 -10 31 -56 64 -95 14 -17 23 -21 36 -14 40 21 74 20 113 -6 33 -21
41 -23 55 -12 24 18 59 49 88 76 l25 24 -28 21 c-15 12 -30 24 -33 28 -24 31
-129 53 -197 41z m117 -32 c0 -5 -5 -10 -11 -10 -5 0 -7 5 -4 10 3 6 8 10 11
10 2 0 4 -4 4 -10z"/>
<path d="M5336 8104 c-4 -9 -13 -14 -21 -10 -18 7 -20 -5 -3 -22 9 -9 8 -12
-4 -12 -19 0 -30 -64 -14 -80 21 -21 38 -11 36 23 -3 52 -1 67 11 67 6 0 9 -7
6 -15 -4 -8 -2 -17 3 -20 6 -4 7 -13 1 -23 -10 -19 3 -52 20 -52 6 0 8 4 4 9
-3 5 -1 12 5 16 8 5 13 -5 12 -25 0 -3 16 -6 35 -7 20 -1 43 -5 52 -9 9 -4 27
-8 41 -10 37 -5 54 -9 65 -15 6 -3 21 -5 35 -5 21 1 25 7 32 45 4 24 5 48 1
54 -3 5 1 13 8 18 11 8 10 12 -5 24 -13 10 -23 12 -32 4 -8 -7 -16 -6 -25 3
-8 8 -25 13 -39 12 -14 -1 -28 3 -32 10 -5 7 -8 6 -8 -4 0 -9 -3 -11 -8 -5 -8
13 -84 37 -77 25 2 -4 -12 -2 -33 6 -49 17 -59 17 -66 -2z m158 -125 c-9 -10
-22 -19 -28 -19 -6 0 0 7 12 16 12 8 19 20 16 26 -5 7 -2 8 5 4 9 -6 8 -13 -5
-27z m153 5 c-3 -3 -12 -4 -19 -1 -8 3 -5 6 6 6 11 1 17 -2 13 -5z m-197 -14
c0 -5 -2 -10 -4 -10 -3 0 -8 5 -11 10 -3 6 -1 10 4 10 6 0 11 -4 11 -10z"/>
<path d="M6972 8060 c-13 -16 -19 -30 -14 -30 4 0 8 -9 8 -20 0 -16 -7 -20
-31 -20 -23 0 -27 -3 -15 -10 13 -8 13 -10 -1 -10 -22 0 -44 -26 -29 -35 5 -3
16 -3 23 2 21 13 36 12 30 -3 -3 -8 0 -21 7 -29 11 -13 10 -14 -4 -9 -9 3 -16
15 -16 26 0 17 -2 18 -15 8 -11 -9 -12 -15 -5 -20 7 -4 5 -12 -6 -21 -10 -8
-15 -9 -12 -4 4 6 -1 19 -9 30 -13 16 -15 17 -10 3 4 -10 2 -18 -4 -18 -6 0
-7 -5 -4 -10 4 -6 3 -10 -2 -9 -21 4 -43 -2 -43 -12 0 -11 -58 -89 -75 -101
-5 -4 -10 -11 -10 -15 0 -4 -9 -18 -20 -29 -23 -25 -112 -143 -137 -183 -10
-15 -15 -36 -11 -49 6 -25 23 -30 23 -7 0 9 7 18 16 22 8 3 13 11 11 17 -3 7
4 12 14 12 11 0 19 -4 19 -9 0 -4 5 -5 12 -1 7 4 8 3 4 -5 -4 -6 -12 -9 -17
-6 -5 4 -9 -1 -9 -9 0 -9 6 -16 14 -16 8 0 13 -8 11 -17 -3 -18 -7 -19 -37 -8
-11 4 -18 3 -18 -4 0 -6 5 -11 11 -11 5 0 7 -5 4 -10 -3 -6 1 -13 9 -16 9 -3
14 -10 11 -14 -3 -4 1 -10 8 -13 15 -5 49 6 47 17 -1 4 12 23 29 42 17 19 28
34 24 34 -5 0 0 7 11 15 10 8 16 21 13 29 -4 10 -1 13 7 10 7 -3 21 7 31 22
17 26 17 28 -1 41 -10 7 -13 13 -7 13 7 0 15 -5 19 -11 4 -7 15 -1 30 17 13
16 28 34 33 40 12 15 4 24 -23 25 -12 0 -15 3 -8 6 6 2 9 9 6 15 -4 6 2 5 15
-1 26 -14 64 6 56 29 -4 8 -3 11 1 8 6 -7 34 15 34 27 0 3 11 18 25 33 14 15
25 32 25 38 0 7 7 15 16 18 8 3 12 11 8 17 -4 8 -3 9 4 5 7 -4 12 -2 12 3 0 6
9 20 20 31 11 11 18 20 15 20 -3 0 3 10 14 22 23 24 26 16 -38 70 -12 10 -23
13 -26 7 -4 -5 -11 -7 -16 -4 -5 4 -9 0 -9 -8 0 -8 -8 -21 -17 -28 -10 -7 -15
-9 -11 -5 4 5 3 15 -3 22 -16 19 0 37 27 31 29 -5 31 4 6 26 -24 22 -25 22
-50 -13z m85 -86 c-3 -3 -12 -4 -19 -1 -8 3 -5 6 6 6 11 1 17 -2 13 -5z m-130
-117 c-2 -7 -9 -13 -15 -13 -7 -1 -14 -3 -17 -4 -3 -1 -11 -3 -17 -4 -7 -1
-12 -10 -11 -21 1 -20 1 -20 -13 -1 -18 25 -18 40 0 33 8 -3 17 1 20 10 4 8
13 13 21 9 8 -3 15 -1 15 5 0 6 5 7 11 4 5 -4 8 -12 6 -18z m13 -71 c0 -10
-30 0 -34 11 -4 11 -1 11 14 3 11 -6 20 -12 20 -14z m-95 4 c3 -5 1 -10 -4
-10 -6 0 -11 5 -11 10 0 6 2 10 4 10 3 0 8 -4 11 -10z m-43 -37 c-6 -3 -10 -9
-6 -14 3 -5 2 -9 -3 -10 -4 0 -16 -2 -26 -4 -9 -2 -14 1 -11 7 3 5 9 7 12 4 3
-3 12 3 20 15 8 11 17 17 21 13 3 -4 0 -9 -7 -11z m38 -33 c0 -17 -26 -17 -27
1 -1 12 3 16 13 12 8 -3 14 -9 14 -13z m-50 -20 c0 -5 -4 -10 -10 -10 -5 0
-10 5 -10 10 0 6 5 10 10 10 6 0 10 -4 10 -10z m-5 -120 c-3 -5 -12 -10 -18
-10 -7 0 -6 4 3 10 19 12 23 12 15 0z m-55 -94 c0 -3 -4 -8 -10 -11 -5 -3 -10
-1 -10 4 0 6 5 11 10 11 6 0 10 -2 10 -4z"/>
<path d="M2317 8043 c-78 -78 -106 -127 -111 -193 -2 -35 18 -103 39 -128 55
-67 89 -90 140 -95 17 -2 36 -6 42 -10 7 -4 15 -2 18 4 4 5 14 8 22 5 8 -3 20
-3 26 1 7 4 17 8 22 8 32 2 95 39 95 55 0 11 5 22 11 26 9 5 10 -1 5 -19 -5
-21 -3 -25 9 -21 8 4 15 14 15 24 0 22 49 37 61 19 6 -10 11 -10 22 -1 7 7 17
9 20 5 4 -3 7 -2 7 3 0 5 15 18 32 29 l33 19 -18 -27 c-22 -35 -22 -36 11 -31
21 3 24 2 12 -7 -11 -8 -12 -12 -2 -16 6 -2 10 -8 7 -13 -3 -5 0 -14 7 -22 19
-20 21 -48 3 -48 -17 0 -21 -26 -5 -32 6 -2 1 -9 -11 -16 -19 -12 -20 -12 -14
10 l6 23 -20 -24 c-25 -28 -26 -35 -4 -52 14 -12 16 -12 8 0 -6 10 -4 12 4 7
7 -5 10 -14 7 -22 -7 -17 14 -30 24 -14 5 9 9 8 13 -4 3 -8 1 -16 -4 -18 -11
-4 -2 -38 10 -38 12 0 82 71 77 78 -2 4 9 17 25 27 16 11 28 24 27 30 -1 5 4
23 11 40 17 40 12 112 -11 158 -10 20 -21 37 -24 37 -3 0 -2 -4 1 -10 3 -5 -1
-10 -10 -10 -13 0 -16 6 -11 25 7 29 -8 34 -23 8 -5 -10 -12 -15 -16 -12 -3 4
2 14 11 23 21 22 9 35 -35 39 -19 2 -39 10 -45 18 -21 27 -51 28 -146 4 -14
-4 -31 -7 -37 -7 -7 -1 -13 -5 -13 -9 0 -4 -16 -10 -35 -13 -19 -4 -35 -11
-35 -17 0 -6 -4 -8 -9 -4 -5 3 -12 1 -15 -4 -6 -9 -52 -21 -96 -26 -14 -2 -36
4 -48 12 -20 12 -23 21 -20 54 2 21 0 39 -5 39 -4 0 -5 5 -2 10 4 6 10 8 15 5
4 -3 17 3 29 13 15 12 19 24 15 39 -4 13 -10 20 -15 17 -5 -3 -9 2 -9 10 0 9
-3 16 -8 16 -4 0 -12 10 -17 22 -14 32 -36 32 -68 1z m459 -179 c-5 -13 -2
-15 14 -11 16 4 18 2 10 -12 -6 -12 -5 -22 2 -29 7 -7 8 -12 3 -12 -14 0 -42
53 -37 68 2 6 6 12 9 12 3 0 2 -7 -1 -16z m101 -99 c-9 -19 -13 -21 -15 -9 -3
13 12 33 25 34 0 0 -4 -11 -10 -25z m-290 -57 c-3 -8 -6 -5 -6 6 -1 11 2 17 5
13 3 -3 4 -12 1 -19z m314 -81 c-13 -13 -26 -3 -16 12 3 6 11 8 17 5 6 -4 6
-10 -1 -17z m44 13 c4 -7 11 -8 18 -1 8 6 16 4 24 -4 15 -16 6 -24 -22 -19
-11 1 -22 -2 -26 -8 -4 -6 -12 -7 -18 -3 -8 5 -9 11 -2 19 6 7 8 16 4 19 -3 4
-1 7 5 7 6 0 14 -5 17 -10z"/>
<path d="M7110 7915 c-40 -52 -46 -65 -33 -74 21 -13 87 -68 131 -108 26 -24
50 -43 54 -43 3 0 21 -14 39 -32 l32 -32 24 29 c13 17 33 42 44 57 l19 27 -46
38 c-26 21 -54 46 -63 56 -8 9 -19 17 -22 17 -4 0 -21 12 -37 28 -60 57 -90
82 -99 82 -4 -1 -24 -21 -43 -45z"/>
<path d="M2848 7883 c7 -3 16 -2 19 1 4 3 -2 6 -13 5 -11 0 -14 -3 -6 -6z"/>
<path d="M6967 7724 c-3 -3 -3 -12 0 -20 3 -9 0 -12 -8 -9 -15 5 -48 -34 -54
-65 -3 -14 2 -20 16 -20 10 0 19 -6 19 -14 0 -7 12 -22 27 -32 14 -10 34 -27
45 -36 10 -10 23 -18 29 -18 5 0 7 -4 4 -10 -3 -5 -1 -10 5 -10 5 0 24 -13 42
-30 34 -33 65 -39 75 -14 3 9 16 27 29 41 30 32 26 45 -26 90 -24 21 -54 48
-67 61 -13 12 -29 22 -35 22 -5 0 -19 11 -30 25 -14 18 -26 24 -42 20 -11 -2
-15 -2 -8 1 6 3 10 10 6 15 -6 10 -18 12 -27 3z m-32 -84 c-3 -5 -12 -10 -18
-10 -7 0 -6 4 3 10 19 12 23 12 15 0z m234 -117 c9 -18 9 -22 -2 -18 -7 3 -13
15 -14 26 -2 24 0 23 16 -8z"/>
<path d="M7526 7581 c-4 -5 3 -13 15 -16 20 -7 20 -7 2 -22 -10 -8 -13 -12 -8
-10 6 2 19 1 30 -3 17 -7 16 -9 -12 -15 -18 -4 -33 -11 -33 -16 0 -5 -4 -9 -9
-9 -6 0 -6 12 -1 29 7 26 6 29 -11 28 -10 -1 -19 -4 -19 -8 0 -4 -9 -9 -21
-12 -20 -6 -21 -6 -3 -36 10 -16 21 -28 26 -25 4 3 8 -1 8 -9 0 -8 15 -31 34
-51 19 -20 32 -36 28 -36 -3 0 3 -8 14 -19 32 -30 64 -71 64 -80 0 -12 29 -23
41 -15 5 3 7 10 4 15 -3 5 1 6 10 3 15 -6 15 -8 2 -22 -17 -16 -8 -42 26 -73
9 -9 17 -19 17 -23 0 -4 16 -22 36 -41 l35 -34 35 37 c19 20 32 42 30 48 -3 7
5 9 21 6 25 -5 25 -4 8 16 -16 18 -20 18 -32 6 -18 -17 -36 -18 -30 -1 2 6 9
11 15 10 5 -1 13 4 16 12 3 8 2 14 -2 14 -21 -3 -30 3 -28 18 3 16 -14 41 -61
89 -13 13 -23 26 -23 30 0 4 -11 17 -25 30 -14 13 -26 27 -26 31 0 7 -40 55
-109 131 -26 29 -55 39 -64 23z m44 -81 c0 -5 -8 -10 -17 -10 -15 0 -16 2 -3
10 19 12 20 12 20 0z m133 -161 c-8 -8 -13 -7 -18 2 -5 8 -4 10 3 5 7 -4 12
-2 12 5 0 7 3 9 7 6 4 -4 2 -12 -4 -18z m-78 -17 c-3 -3 -11 0 -18 7 -9 10 -8
11 6 5 10 -3 15 -9 12 -12z m85 -18 c0 -8 -4 -12 -10 -9 -5 3 -10 10 -10 16 0
5 5 9 10 9 6 0 10 -7 10 -16z m79 -44 c10 0 18 -7 18 -15 0 -8 -2 -15 -4 -15
-9 0 -43 36 -42 45 0 5 3 4 6 -2 2 -7 13 -13 22 -13z m-39 0 c0 -5 -5 -10 -11
-10 -5 0 -7 5 -4 10 3 6 8 10 11 10 2 0 4 -4 4 -10z m68 -63 c0 -13 -7 -24
-14 -24 -17 0 -18 13 -3 23 8 4 7 9 -2 15 -11 7 -11 9 2 9 11 0 17 -8 17 -23z
m-58 9 c0 -3 -4 -8 -10 -11 -5 -3 -10 -1 -10 4 0 6 5 11 10 11 6 0 10 -2 10
-4z"/>
<path d="M4671 7513 c-78 -130 -164 -319 -191 -423 -7 -25 -15 -52 -18 -60 -5
-16 -5 -17 -17 -95 -16 -107 -5 -190 37 -283 34 -74 79 -202 72 -202 -3 0 0
-8 5 -19 26 -49 27 -286 1 -380 -13 -47 -7 -49 23 -9 58 77 127 262 153 408 3
14 7 31 9 38 7 20 18 140 18 197 0 77 -11 155 -24 171 -6 8 -9 14 -6 14 4 0
-2 20 -13 45 -11 25 -18 45 -16 45 2 0 -2 25 -9 55 -13 52 -14 350 -2 400 3
11 8 40 11 65 3 25 8 55 10 68 8 37 -8 25 -43 -35z"/>
<path d="M2524 7525 c-4 -8 -11 -15 -18 -15 -6 0 -29 -16 -50 -34 l-39 -35 29
-31 c57 -60 87 -73 174 -73 75 1 109 9 135 33 12 11 25 17 28 13 4 -3 7 1 7 9
0 12 6 14 22 10 17 -4 20 -2 15 12 -4 10 -7 22 -7 27 0 5 -6 9 -13 9 -8 0 -22
18 -32 40 -18 41 -29 48 -40 30 -4 -6 -11 -8 -16 -5 -5 4 -9 2 -9 -4 0 -6 -7
-8 -15 -5 -8 4 -15 2 -15 -4 0 -9 -36 -7 -70 4 -8 3 -17 5 -20 5 -3 0 -9 7
-13 15 -11 19 -46 18 -53 -1z"/>
<path d="M6800 7450 c0 -8 -8 -10 -27 -5 -23 5 -25 4 -14 -9 10 -12 8 -15 -11
-18 -13 -2 -23 -9 -23 -16 0 -7 -6 -16 -13 -21 -19 -11 -4 -38 24 -45 14 -4
22 -11 19 -16 -3 -5 -1 -11 4 -14 5 -4 13 -1 17 5 5 8 3 9 -6 4 -9 -5 -11 -4
-6 4 10 15 27 3 24 -17 -2 -9 7 -21 19 -27 13 -7 20 -15 16 -18 -3 -4 -1 -7 5
-7 5 0 12 3 15 8 2 4 3 2 1 -5 -3 -14 30 -45 39 -36 4 3 7 -1 7 -10 0 -9 4
-17 9 -17 5 0 19 -11 32 -25 29 -30 40 -31 62 -5 9 11 14 20 10 20 -4 0 2 7
13 15 10 8 15 15 9 15 -5 0 1 7 13 16 18 13 21 19 11 30 -6 8 -20 14 -30 14
-12 0 -16 5 -13 14 3 9 -6 19 -25 27 -17 8 -31 20 -31 26 0 7 -4 13 -10 13 -5
0 -23 12 -39 28 -16 15 -36 32 -43 37 -8 6 -24 19 -36 29 -14 12 -22 15 -22 6z
m-15 -56 c-13 -14 -14 -19 -3 -25 10 -7 9 -9 -4 -9 -10 0 -18 -5 -18 -11 0 -5
-5 -7 -10 -4 -17 11 18 64 43 65 5 0 1 -7 -8 -16z m101 -130 c-4 -9 -9 -15
-11 -12 -3 3 -3 13 1 22 4 9 9 15 11 12 3 -3 3 -13 -1 -22z"/>
<path d="M5678 7333 c-84 -96 -216 -377 -233 -498 -2 -11 -4 -20 -5 -20 -1 0
-3 -31 -4 -70 -3 -82 2 -101 60 -220 23 -49 50 -116 58 -148 17 -70 19 -215 2
-271 -30 -99 -31 -95 2 -58 64 70 146 285 170 443 8 54 7 156 -1 209 -5 28
-13 51 -33 96 -29 66 -42 155 -39 257 3 93 28 267 41 288 9 15 -2 10 -18 -8z"/>
<path d="M7522 7325 c-12 -9 -20 -21 -17 -26 4 -5 1 -9 -6 -9 -7 0 -19 -7 -28
-15 -9 -8 -45 -41 -80 -75 -35 -33 -65 -60 -67 -60 -4 0 -55 -45 -139 -124
l-63 -58 19 -22 c11 -11 36 -41 57 -65 l38 -43 38 35 c20 20 40 37 44 39 4 2
6 6 4 11 -1 4 2 7 8 7 16 0 51 40 45 50 -3 5 0 7 8 4 21 -8 31 14 15 33 -12
15 -11 15 10 4 18 -10 22 -9 22 4 0 9 4 14 8 11 5 -3 24 9 43 27 19 18 47 42
63 55 16 12 25 22 20 22 -5 0 6 9 24 20 17 11 32 27 32 35 0 8 7 15 15 15 23
0 18 16 -14 52 -16 18 -40 46 -53 61 -22 26 -24 27 -46 12z m-98 -143 c2 -4
-4 -9 -15 -9 -10 -1 -19 2 -19 8 0 11 27 12 34 1z m-21 -62 c-3 -11 -7 -20 -8
-20 -1 0 -5 9 -8 20 -3 12 0 20 8 20 8 0 11 -8 8 -20z m7 -40 c0 -5 -5 -10
-11 -10 -5 0 -7 5 -4 10 3 6 8 10 11 10 2 0 4 -4 4 -10z m-5 -48 c-3 -3 -11 0
-18 7 -9 10 -8 11 6 5 10 -3 15 -9 12 -12z"/>
<path d="M1245 7320 c-3 -5 -12 -7 -19 -4 -15 6 -32 -13 -22 -24 4 -3 25 -7
47 -8 42 -2 79 -29 71 -52 -5 -16 17 -44 29 -36 13 8 4 81 -12 97 -8 7 -29 19
-48 25 -41 14 -38 14 -46 2z"/>
<path d="M1167 7256 c-17 -45 52 -128 101 -120 6 1 17 2 23 3 5 0 7 6 3 13 -4
7 -3 8 4 4 21 -13 35 5 15 19 -10 7 -22 10 -28 5 -27 -21 -75 11 -78 51 -2 35
-30 52 -40 25z"/>
<path d="M3712 7243 c-45 -65 -137 -230 -147 -263 -1 -3 -9 -23 -19 -45 -20
-45 -51 -142 -61 -195 -18 -85 0 -201 38 -255 12 -16 21 -31 20 -32 -1 -2 7
-24 18 -50 56 -128 69 -290 32 -395 -11 -32 -16 -58 -12 -58 13 0 66 76 93
134 30 63 66 166 59 166 -3 0 0 7 7 15 7 8 10 15 7 15 -3 0 1 21 9 48 8 26 17
97 20 157 6 103 5 115 -21 185 -51 141 -67 267 -50 395 14 102 13 97 31 178 3
15 3 27 0 27 -2 0 -13 -12 -24 -27z"/>
<path d="M1428 7198 c-13 -16 -29 -36 -36 -44 -7 -8 -11 -14 -9 -14 3 0 -10
-16 -29 -36 l-33 -37 19 -37 c10 -20 26 -42 34 -49 9 -8 16 -17 16 -22 0 -8
20 -36 48 -64 6 -8 12 -17 12 -22 0 -5 13 -24 30 -43 16 -19 29 -41 30 -47 0
-7 3 -13 8 -13 4 0 18 -18 32 -40 14 -22 28 -40 32 -40 5 0 8 -4 8 -10 0 -5 9
-19 20 -30 12 -12 18 -25 15 -30 -6 -9 8 -14 28 -11 5 1 6 -3 2 -9 -3 -5 0
-10 7 -10 9 0 9 -3 -2 -10 -8 -5 -10 -10 -5 -10 6 0 27 -27 49 -60 21 -33 43
-60 50 -60 6 0 17 -9 24 -20 7 -11 18 -20 26 -20 8 0 16 -7 20 -15 8 -22 44
-18 51 5 3 11 11 20 16 20 5 0 9 7 9 15 0 8 4 15 8 15 4 0 16 14 26 30 16 29
17 33 1 56 -9 14 -23 28 -31 31 -8 3 -14 9 -14 14 0 9 -75 115 -90 129 -3 3
-17 21 -30 40 -14 19 -32 44 -41 55 -65 78 -167 210 -165 213 2 1 43 -13 91
-33 48 -19 91 -35 95 -35 5 0 29 -9 54 -20 l46 -19 -35 -38 c-47 -50 -55 -81
-27 -104 12 -9 22 -21 22 -26 1 -9 46 -63 54 -63 2 0 21 23 41 52 21 28 42 56
46 62 5 6 19 23 32 38 l22 27 70 -25 c39 -14 77 -27 85 -29 17 -3 60 33 60 51
0 7 3 14 8 16 4 2 22 22 40 45 32 41 35 63 8 63 -11 0 -212 61 -256 77 -20 8
-41 13 -62 15 -10 1 -18 6 -18 11 0 5 -7 7 -15 3 -8 -3 -15 0 -15 6 0 6 -3 9
-6 6 -3 -4 -21 0 -40 8 -19 8 -34 11 -34 8 0 -4 -7 -1 -15 6 -8 7 -15 10 -15
7 0 -3 -15 0 -34 8 -18 8 -44 16 -57 19 -13 2 -36 9 -51 15 -16 6 -28 8 -28 5
0 -4 -6 -2 -13 4 -7 6 -25 12 -39 14 -15 2 -30 7 -34 11 -4 4 -18 7 -31 7 -12
0 -23 4 -23 8 0 20 -41 8 -62 -20z m292 -518 c0 -5 -5 -10 -11 -10 -5 0 -7 5
-4 10 3 6 8 10 11 10 2 0 4 -4 4 -10z m186 -172 c10 -12 13 -18 7 -14 -7 4
-13 3 -13 -2 0 -20 -27 -19 -40 1 -12 20 -12 21 3 9 21 -18 43 -6 26 14 -19
23 -4 16 17 -8z"/>
<path d="M7970 6999 c0 -5 10 -14 23 -18 21 -9 21 -9 3 -17 -18 -7 -18 -8 3
-16 18 -6 20 -10 9 -22 -11 -12 -13 -12 -16 0 -3 10 -8 11 -22 4 -26 -14 -38
7 -14 24 14 10 14 15 4 21 -9 5 -15 4 -18 -3 -2 -7 -8 -10 -13 -7 -11 7 -49
-12 -49 -25 0 -6 7 -10 16 -10 8 0 12 -5 9 -11 -4 -6 1 -17 11 -25 11 -9 13
-12 6 -9 -8 4 -2 -11 12 -33 14 -22 22 -43 19 -46 -4 -3 -1 -6 5 -6 7 0 12 -7
12 -15 0 -8 5 -15 10 -15 6 0 9 -6 8 -12 -2 -7 5 -12 15 -10 9 2 17 -2 17 -8
0 -6 -4 -8 -10 -5 -15 9 -12 -3 8 -38 22 -42 35 -50 44 -29 4 10 7 11 7 4 1
-7 7 -10 14 -7 6 4 4 0 -7 -9 -10 -8 -15 -19 -11 -25 3 -6 1 -11 -6 -11 -7 0
-2 -9 10 -19 12 -11 22 -22 21 -26 -2 -10 25 -65 32 -65 5 0 8 -6 8 -14 0 -22
23 -25 57 -6 25 13 30 20 20 30 -10 10 -8 11 9 6 27 -8 65 28 39 37 -8 4 -15
2 -15 -3 0 -6 -4 -10 -8 -10 -5 0 -9 7 -9 15 0 8 7 15 14 15 8 0 11 5 8 10 -4
6 -11 8 -16 5 -5 -4 -9 -3 -10 2 0 4 -2 20 -3 35 -1 15 -9 35 -18 45 -8 10
-24 36 -34 58 -10 22 -21 42 -24 45 -3 3 -12 20 -19 38 -8 17 -18 32 -23 32
-5 0 -6 5 -3 10 3 6 1 10 -6 10 -7 0 -9 3 -6 6 3 4 -3 18 -13 32 -11 13 -20
30 -20 36 0 18 -43 61 -62 62 -10 1 -18 -2 -18 -7z m160 -278 c-1 -14 -2 -14
-11 2 -6 9 -15 14 -21 11 -7 -4 -8 -2 -4 4 9 16 36 3 36 -17z m-20 -22 c0 -11
-3 -11 -24 -3 -23 9 -20 23 4 17 11 -3 20 -9 20 -14z m57 -45 c-3 -3 -12 -4
-19 -1 -8 3 -5 6 6 6 11 1 17 -2 13 -5z m20 -54 c2 -47 1 -50 -17 -40 -22 12
-27 22 -7 14 9 -3 12 4 11 23 -1 18 -7 27 -15 25 -8 -1 -5 4 5 13 11 8 20 15
21 15 0 0 1 -23 2 -50z m28 -29 c3 -5 1 -12 -5 -16 -5 -3 -10 1 -10 9 0 18 6
21 15 7z"/>
<path d="M7920 6748 c0 -5 -11 -13 -25 -18 -14 -5 -25 -15 -25 -21 0 -7 -3 -9
-6 -6 -4 4 -24 -3 -45 -15 -38 -21 -39 -22 -23 -47 9 -14 11 -21 4 -14 -7 6
-20 9 -29 6 -14 -4 -14 -3 -1 6 13 9 13 11 -2 11 -10 0 -18 -5 -18 -11 0 -5
-4 -8 -9 -5 -5 3 -12 -1 -15 -10 -3 -8 -9 -13 -14 -11 -4 3 -45 -19 -92 -49
-47 -30 -92 -57 -100 -61 -40 -18 -41 -30 -9 -90 48 -89 49 -89 100 -57 24 15
46 26 48 25 2 -2 7 1 10 6 3 5 30 24 59 42 28 18 52 37 52 43 0 5 4 7 9 4 5
-3 19 2 32 12 13 10 38 24 54 32 17 8 36 21 43 28 7 6 18 12 24 12 5 0 24 15
41 33 17 17 27 26 23 20 -5 -9 -2 -11 8 -7 19 7 15 43 -6 58 -8 6 -13 17 -11
24 3 6 -3 12 -12 12 -9 0 -13 4 -10 10 10 16 -14 49 -35 47 -11 -1 -20 -5 -20
-9z m-143 -158 c1 -15 -4 -20 -20 -19 -21 0 -21 1 -2 9 11 5 16 9 12 9 -5 1
-5 6 -2 11 9 14 11 13 12 -10z m-17 -115 c11 -13 10 -14 -4 -9 -9 3 -16 10
-16 15 0 13 6 11 20 -6z"/>
<path d="M1029 6588 c-9 -24 -23 -59 -32 -79 l-16 -36 45 -62 c25 -33 50 -61
54 -61 5 0 11 -8 15 -19 3 -10 19 -31 35 -47 16 -16 30 -32 30 -36 0 -5 8 -16
18 -26 30 -33 52 -62 52 -71 0 -4 14 -22 30 -39 17 -18 30 -34 30 -37 0 -16
45 -53 61 -50 11 2 19 1 19 -4 0 -5 51 -29 80 -36 11 -3 47 -18 88 -37 57 -25
70 -19 38 15 -14 16 -26 32 -26 37 0 4 -3 10 -7 12 -5 2 -28 30 -53 63 -25 33
-49 65 -55 71 -32 36 -45 55 -45 64 0 6 -4 10 -9 10 -5 0 -20 17 -32 38 -40
64 -103 134 -113 125 -3 -3 -6 1 -6 10 0 8 -7 22 -15 31 -9 8 -15 18 -15 21 1
6 -50 72 -77 100 -7 8 -13 18 -13 24 0 6 -4 11 -10 11 -5 0 -10 5 -10 11 0 11
-28 38 -40 39 -3 0 -12 -19 -21 -42z m176 -278 c-3 -5 -15 -15 -26 -21 -19
-10 -20 -9 -9 10 6 12 18 21 26 21 8 0 12 -4 9 -10z m55 -4 c0 -2 -7 -7 -16
-10 -8 -3 -12 -2 -9 4 6 10 25 14 25 6z"/>
<path d="M1117 6603 c-4 -3 13 -29 36 -57 23 -28 49 -59 57 -69 8 -11 21 -25
28 -32 6 -8 12 -17 12 -21 0 -8 12 -22 67 -77 12 -12 54 -35 95 -50 40 -16 83
-34 95 -40 16 -7 26 -7 37 2 11 9 16 9 22 0 4 -8 3 -9 -4 -5 -7 4 -12 2 -12
-4 0 -6 17 -18 38 -26 46 -18 68 -28 107 -45 17 -7 32 -13 35 -13 3 -1 10 -4
16 -8 6 -4 16 4 23 20 7 15 12 27 10 27 -1 0 4 11 12 25 27 50 39 94 27 102
-7 3 -16 4 -20 2 -4 -3 -8 -1 -8 4 0 5 -46 26 -102 47 -57 21 -107 42 -113 46
-5 4 -21 9 -35 11 -14 1 -28 7 -31 11 -3 5 -15 10 -25 12 -10 2 -20 4 -21 5
-2 2 -6 3 -10 5 -5 1 -21 8 -38 15 -16 7 -37 14 -45 16 -8 2 -23 7 -35 13 -11
6 -47 21 -80 34 -33 13 -69 28 -80 32 -11 5 -22 9 -25 9 -3 1 -10 4 -16 8 -6
4 -14 5 -17 1z"/>
<path d="M8306 6361 c-26 -5 -28 -7 -13 -20 12 -9 17 -10 17 -2 0 8 7 7 22 -3
28 -20 35 -20 35 -1 0 8 -4 15 -9 15 -5 0 -6 5 -3 10 7 11 -4 11 -49 1z"/>
<path d="M8275 6320 c-3 -11 -11 -18 -16 -14 -5 3 -7 9 -4 14 3 5 -4 8 -15 7
-11 -1 -20 -5 -20 -9 0 -4 -9 -5 -20 -3 -22 4 -28 -20 -7 -28 9 -4 9 -6 0 -6
-7 -1 -10 -8 -7 -16 4 -8 1 -15 -5 -15 -6 0 -11 7 -11 16 0 12 -7 15 -25 12
-14 -3 -22 -1 -18 5 6 10 -24 3 -77 -21 -19 -8 -44 -17 -54 -19 -11 -2 -25 -8
-33 -14 -7 -6 -13 -8 -13 -4 0 4 -7 2 -15 -5 -8 -7 -15 -9 -15 -6 0 4 -10 0
-22 -8 -12 -9 -29 -16 -38 -16 -8 0 -32 -9 -53 -20 -20 -11 -37 -18 -37 -15 0
3 -17 -3 -38 -14 -24 -12 -38 -27 -39 -40 -2 -25 9 -27 27 -6 9 11 16 12 25 5
10 -8 14 -7 17 4 2 11 7 8 20 -8 16 -22 16 -23 -7 -20 -23 2 -24 1 -8 -22 14
-23 14 -24 -5 -24 -11 0 -23 7 -26 16 -3 8 -10 13 -15 9 -12 -7 -10 -45 2 -45
5 0 4 -6 -2 -14 -8 -10 -8 -16 3 -25 9 -8 16 -8 20 -2 4 6 13 8 20 5 8 -3 17
-1 21 5 3 6 12 11 20 11 8 0 26 5 42 11 15 6 30 10 33 11 3 0 10 4 15 8 6 5
22 11 37 14 14 2 39 11 54 19 16 8 42 17 58 21 l28 7 -23 19 c-12 11 -20 20
-18 21 2 0 12 2 21 4 10 2 16 -2 15 -8 -4 -22 37 -18 107 9 39 15 74 32 78 38
4 6 8 8 8 3 0 -4 15 -1 34 7 19 8 37 12 40 8 3 -3 6 0 6 6 0 7 7 9 17 5 12 -5
15 -2 11 9 -5 11 -1 14 18 10 l24 -4 -16 47 c-18 52 -32 62 -63 45 -17 -8 -21
-8 -21 3 0 8 -6 20 -14 26 -11 10 -16 8 -21 -9z m-41 -38 c3 -5 -1 -9 -9 -9
-8 0 -15 4 -15 9 0 4 4 8 9 8 6 0 12 -4 15 -8z m-67 -46 c13 -12 11 -33 -3
-33 -8 0 -14 6 -14 14 0 9 -8 11 -24 7 -15 -4 -25 -1 -29 9 -4 12 2 14 29 13
19 -2 37 -6 41 -10z m-77 -26 c0 -5 -4 -10 -10 -10 -5 0 -10 5 -10 10 0 6 5
10 10 10 6 0 10 -4 10 -10z m-76 -17 c-10 -7 -23 -13 -28 -12 -6 0 -5 3 2 6 6
2 10 9 7 13 -3 5 4 8 15 7 20 -1 20 -2 4 -14z m12 -48 c-3 -8 -13 -15 -23 -14
-16 0 -16 1 2 9 11 5 14 9 7 9 -10 1 -10 4 0 15 14 16 23 4 14 -19z m124 13
c0 -6 -6 -5 -15 2 -8 7 -15 14 -15 16 0 2 7 1 15 -2 8 -4 15 -11 15 -16z
m-180 -88 c0 -5 -8 -10 -17 -10 -15 0 -16 2 -3 10 19 12 20 12 20 0z m-140
-45 c0 -7 -30 -13 -34 -7 -3 4 4 9 15 9 10 1 19 0 19 -2z"/>
<path d="M8349 6163 c-16 -6 -29 -10 -29 -7 0 3 -7 -2 -16 -10 -10 -11 -13
-23 -8 -38 4 -13 9 -30 10 -38 2 -8 8 -16 14 -18 5 -2 7 -8 4 -13 -3 -6 0 -16
6 -24 7 -8 9 -15 5 -15 -4 0 -2 -6 4 -13 6 -8 8 -17 4 -20 -3 -4 0 -13 6 -21
7 -8 10 -20 6 -26 -3 -5 -1 -10 4 -10 6 0 11 -9 11 -20 0 -11 4 -20 9 -20 5 0
9 -6 8 -12 -1 -35 5 -48 21 -48 10 0 22 3 26 8 4 4 11 7 14 8 4 1 22 7 39 13
30 12 32 15 27 49 -3 21 -10 39 -15 40 -5 2 -7 8 -3 13 3 5 1 9 -4 9 -6 0 -8
8 -5 19 3 10 0 22 -6 25 -6 4 -11 18 -11 32 0 13 -4 24 -8 24 -4 0 -9 10 -9
22 -1 13 -10 28 -19 35 -10 7 -13 13 -6 13 8 0 8 8 1 29 -11 32 -29 36 -80 14z"/>
<path d="M8146 6083 c-4 -4 -11 -8 -14 -9 -44 -7 -72 -19 -72 -29 0 -8 -6 -16
-12 -18 -10 -4 -10 -8 -2 -14 7 -4 10 -20 9 -35 -2 -16 1 -28 7 -28 6 0 8 -7
4 -15 -3 -8 2 -19 12 -24 9 -6 14 -11 10 -11 -7 0 15 -86 35 -132 14 -32 26
-34 67 -13 17 9 30 12 30 9 0 -4 9 1 19 10 15 14 18 23 11 41 -5 13 -6 26 -3
29 4 3 1 6 -6 6 -7 0 -9 5 -6 10 3 6 -2 10 -12 10 -15 0 -15 2 -4 9 12 8 12
12 2 25 -7 9 -11 23 -7 31 3 8 2 15 -2 15 -11 0 -35 61 -33 83 2 12 -5 17 -21
17 -17 0 -19 3 -9 9 7 5 12 14 10 20 -3 7 -8 9 -13 4z m55 -276 c-10 -9 -11
-8 -5 6 3 10 9 15 12 12 3 -3 0 -11 -7 -18z"/>
<path d="M1297 6004 c-4 -5 -47 -12 -102 -18 -16 -2 -33 -4 -37 -5 -3 0 -9 -9
-11 -18 -4 -16 -5 -16 -6 -1 -1 18 -41 14 -42 -6 -5 -80 -9 -110 -18 -119 -14
-14 -14 -40 -1 -32 5 3 24 8 42 10 18 2 51 6 73 10 22 4 45 8 50 9 6 1 15 4
20 7 9 5 55 10 113 13 12 1 22 3 22 6 0 3 8 6 18 6 9 0 42 4 72 9 30 4 63 8
73 8 43 3 17 16 -143 77 -47 17 -92 35 -101 40 -9 5 -19 7 -22 4z"/>
<path d="M1046 5962 c-3 -5 -29 -12 -58 -15 -29 -4 -66 -9 -83 -11 -16 -3 -49
-7 -72 -10 -83 -10 -87 -13 -113 -79 -13 -34 -28 -67 -33 -74 -11 -15 -1 -34
16 -28 7 3 30 7 52 9 22 3 40 5 40 6 0 1 9 3 20 4 132 19 145 23 168 53 22 28
34 24 17 -6 -8 -16 -8 -21 2 -21 34 1 52 34 63 117 6 47 -5 77 -19 55z m-20
-59 c2 -15 -17 -43 -30 -43 -3 0 -6 9 -6 20 0 11 5 20 10 20 6 0 10 8 10 17 0
20 13 9 16 -14z"/>
<path d="M7831 5951 c-8 -5 -20 -7 -28 -4 -7 3 -20 0 -28 -7 -8 -7 -15 -9 -15
-4 0 5 -5 1 -11 -8 -6 -11 -6 -24 -1 -33 7 -14 12 -13 35 5 15 12 31 19 36 16
5 -4 11 -1 13 6 3 7 7 5 11 -6 4 -9 3 -15 -2 -11 -5 3 -17 -3 -27 -12 -10 -10
-19 -17 -21 -15 -9 7 -23 1 -18 -8 3 -5 1 -10 -4 -10 -6 0 -11 -4 -11 -10 0
-5 6 -7 13 -4 8 3 14 -2 14 -11 0 -8 -4 -15 -9 -15 -17 0 -7 -21 15 -30 12 -5
17 -9 10 -9 -13 -1 -10 -29 5 -58 6 -10 10 -21 10 -26 2 -50 29 -107 52 -107
19 1 51 25 45 34 -3 3 0 2 6 -3 13 -11 59 10 59 27 0 7 -6 15 -12 17 -7 3 -14
22 -15 42 -1 21 -6 39 -12 41 -5 2 -7 10 -4 18 3 8 0 14 -7 14 -6 0 -8 5 -4
11 3 6 2 21 -4 32 -19 40 -32 81 -34 105 -1 6 -9 12 -19 12 -9 0 -19 4 -21 10
-2 5 -9 6 -17 1z m29 -195 c0 -2 -7 -7 -16 -10 -8 -3 -12 -2 -9 4 6 10 25 14
25 6z"/>
<path d="M1007 5763 c-11 -12 -17 -13 -17 -5 0 7 -5 10 -11 7 -6 -5 -4 -12 8
-22 10 -8 12 -12 6 -8 -8 4 -13 0 -13 -9 0 -10 -9 -16 -22 -16 -15 0 -19 3
-11 8 24 15 -4 34 -48 33 -24 -2 -52 -2 -61 -2 -10 0 -18 -4 -18 -9 0 -5 -9
-7 -19 -5 -11 2 -32 0 -48 -4 -25 -8 -26 -9 -8 -16 11 -4 53 -21 93 -36 93
-36 112 -37 112 -4 0 14 3 25 8 25 12 0 31 -49 21 -56 -14 -8 0 -24 22 -24 11
0 18 4 15 8 -3 5 1 37 9 73 14 69 9 89 -18 62z"/>
<path d="M1061 5763 c-7 -8 -10 -20 -7 -28 2 -7 -1 -18 -7 -24 -7 -5 -13 -30
-15 -55 -1 -37 2 -46 18 -51 11 -4 20 -11 20 -16 0 -6 5 -7 10 -4 6 4 16 2 23
-3 7 -6 21 -12 32 -14 11 -1 22 -5 25 -8 7 -8 121 -51 140 -53 8 -1 17 -5 20
-8 7 -7 124 -49 139 -49 6 0 16 12 22 28 5 15 12 34 16 42 3 8 5 18 5 23 -1 4
2 7 6 7 5 0 9 6 10 13 0 6 4 22 7 34 6 20 -1 27 -45 38 -9 3 -45 17 -65 26
-37 16 -80 32 -90 33 -5 1 -21 7 -35 15 -14 8 -27 14 -30 14 -3 0 -16 4 -30 9
-14 5 -33 10 -42 11 -10 1 -18 6 -18 11 0 5 -3 6 -7 3 -3 -4 -12 -2 -20 5 -20
16 -67 17 -82 1z m16 -69 c-3 -3 -12 -4 -19 -1 -8 3 -5 6 6 6 11 1 17 -2 13
-5z"/>
<path d="M8485 5664 c-38 -8 -92 -16 -119 -19 -26 -3 -52 -7 -56 -10 -4 -3
-27 -7 -51 -10 -24 -3 -55 -7 -69 -10 -14 -3 -40 -8 -59 -11 -18 -3 -41 -7
-50 -9 -9 -1 -36 -6 -61 -10 -25 -4 -54 -9 -65 -11 -11 -2 -33 -7 -49 -10 -16
-2 -33 -7 -38 -10 -10 -6 1 -84 14 -101 6 -7 5 -14 -2 -18 -8 -5 -8 -11 -1
-19 6 -7 8 -16 4 -19 -10 -11 47 -7 127 9 41 8 89 16 105 18 61 8 100 17 114
29 12 10 13 9 7 -2 -7 -10 -4 -12 12 -7 28 9 60 16 107 22 56 8 80 12 80 14 0
3 81 15 143 22 9 1 12 16 8 57 -3 31 -7 65 -10 76 -2 11 -5 26 -5 33 -1 6 -4
11 -8 11 -5 -1 -39 -8 -78 -15z"/>
<path d="M810 5479 c-19 -4 -38 -5 -42 -3 -5 3 -8 1 -8 -4 0 -5 -13 -12 -28
-15 -60 -12 -148 -132 -159 -215 l-5 -37 44 -2 c23 -1 55 -4 70 -7 27 -4 44 7
50 34 6 28 45 61 77 65 19 2 38 8 44 14 5 5 12 45 14 89 5 88 2 94 -57 81z
m-80 -53 c0 -2 -7 -7 -16 -10 -8 -3 -12 -2 -9 4 6 10 25 14 25 6z"/>
<path d="M8525 5472 c-4 -4 -33 -10 -52 -11 -9 -1 -11 -13 -7 -43 3 -24 6 -56
7 -73 1 -16 6 -33 12 -37 7 -5 6 -8 -2 -8 -6 0 -10 -8 -9 -17 3 -20 -27 -55
-52 -61 -51 -10 -68 -7 -89 19 -13 15 -23 34 -23 43 0 9 -3 16 -8 16 -4 0 -8
15 -8 33 -2 37 -11 87 -18 94 -3 3 -11 1 -18 -3 -7 -5 -22 -9 -33 -10 -73 -3
-75 -4 -75 -28 0 -14 5 -28 10 -31 7 -4 7 -11 2 -18 -5 -7 -6 -21 -2 -32 4
-11 3 -28 -2 -39 -7 -13 -7 -16 1 -12 20 13 11 -2 -20 -33 -17 -17 -39 -31
-50 -31 -13 0 -18 -4 -13 -12 4 -6 3 -8 -3 -5 -13 8 -83 -14 -83 -25 0 -5 -4
-7 -8 -4 -5 3 -20 -5 -35 -18 -31 -27 -27 -57 12 -94 l26 -23 -25 15 c-25 15
-26 15 -26 -9 0 -14 4 -25 9 -25 4 0 5 -9 2 -20 -8 -26 21 -39 38 -17 14 19
102 58 111 50 3 -3 11 7 17 23 6 16 13 23 16 17 3 -7 14 -13 24 -13 13 0 18 4
13 12 -5 8 -2 9 9 5 10 -4 17 -1 17 5 0 6 3 8 7 5 11 -11 63 45 63 67 0 17 2
18 10 6 5 -8 10 -10 10 -5 1 6 5 0 10 -12 23 -58 145 -80 226 -42 39 19 103
100 96 122 -1 5 1 14 6 21 9 12 8 50 -3 136 -4 30 -8 66 -9 80 -2 14 -4 30 -4
36 -2 9 -68 14 -77 6z m-247 -197 c-3 -3 -9 2 -12 12 -6 14 -5 15 5 6 7 -7 10
-15 7 -18z m-277 -168 c-10 -9 -11 -8 -5 6 3 10 9 15 12 12 3 -3 0 -11 -7 -18z"/>
<path d="M1108 5441 c-16 -10 -25 -21 -21 -24 3 -4 -1 -7 -10 -7 -11 0 -14 5
-10 17 6 15 5 15 -13 -1 -10 -9 -34 -28 -51 -42 -18 -14 -33 -32 -33 -40 0 -8
-4 -14 -10 -14 -5 0 -10 -6 -10 -13 0 -7 -10 -33 -21 -57 -12 -24 -22 -49 -24
-54 -1 -6 -8 -24 -15 -41 -7 -16 -14 -32 -15 -35 -4 -17 -36 -69 -50 -80 -26
-22 -61 -19 -90 6 -28 24 -40 60 -24 70 6 3 5 12 -3 22 -11 13 -11 15 2 7 10
-5 12 -5 5 2 -5 6 -33 14 -62 17 -28 3 -58 9 -67 12 -9 3 -16 1 -16 -6 0 -6
-3 -9 -8 -6 -11 7 -9 -68 3 -76 6 -5 6 -8 -1 -8 -24 0 16 -126 56 -177 10 -12
20 -19 24 -16 3 3 6 2 6 -4 0 -13 47 -36 85 -40 141 -17 214 22 283 155 18 34
30 62 27 62 -4 0 3 16 15 35 18 28 19 35 7 35 -9 0 -17 -10 -19 -22 l-3 -23
-14 24 c-7 13 -8 20 -2 17 11 -7 37 32 33 50 -1 7 4 14 13 18 8 3 15 0 15 -7
1 -25 20 22 22 56 4 43 28 71 28 32 0 -29 15 -33 28 -8 9 16 11 16 27 0 15
-16 30 -21 38 -14 2 1 11 -4 19 -11 13 -10 18 -9 28 3 9 10 9 15 1 15 -6 0
-11 5 -11 10 0 6 12 10 26 10 21 0 24 3 15 14 -9 10 -8 16 4 26 12 10 16 9 21
-6 4 -11 9 -23 12 -29 3 -5 2 -7 -3 -3 -11 10 -74 -53 -80 -80 -3 -20 -2 -22
11 -11 19 15 22 10 13 -21 -4 -14 -7 -19 -8 -12 -1 6 -5 12 -10 12 -13 0 0
-48 15 -54 8 -3 14 0 14 7 0 8 4 6 10 -3 9 -13 10 -13 10 0 1 12 3 11 14 -3
14 -18 33 -7 21 12 -3 6 3 9 13 8 13 -1 18 -7 15 -18 -3 -9 2 -19 11 -22 25
-10 41 71 22 108 -5 11 -9 33 -7 48 2 18 -4 34 -16 44 -10 8 -12 12 -5 8 17
-8 15 10 -2 24 -10 8 -16 9 -21 1 -9 -15 -22 -12 -29 6 -3 8 -2 13 2 10 4 -2
14 -1 22 4 11 7 9 13 -11 29 -32 27 -89 55 -117 58 -19 2 -22 -2 -16 -20 6
-19 5 -20 -10 -5 -9 9 -16 21 -16 26 0 5 -6 9 -13 9 -8 0 -12 -11 -11 -29 1
-15 -2 -31 -7 -34 -5 -3 -9 -2 -8 3 4 22 -2 63 -8 62 -5 0 -20 -8 -35 -18z
m-55 -93 c10 2 17 -3 17 -11 0 -17 -40 -11 -52 7 -13 18 -8 32 5 16 7 -9 20
-14 30 -12z m124 15 c-4 -3 -1 -13 6 -21 8 -11 8 -14 0 -9 -6 4 -13 1 -16 -5
-2 -7 -4 -1 -4 15 0 15 4 27 10 27 6 0 7 -3 4 -7z m-167 -273 c0 -5 -5 -10
-11 -10 -5 0 -7 5 -4 10 3 6 8 10 11 10 2 0 4 -4 4 -10z"/>
<path d="M4557 5434 c-1 -1 -85 -5 -187 -8 -102 -3 -196 -8 -210 -10 -14 -3
-61 -7 -106 -10 -108 -9 -231 -23 -344 -41 -14 -3 -47 -7 -75 -10 -27 -4 -95
-15 -150 -26 -55 -11 -111 -22 -125 -25 -14 -2 -38 -7 -55 -11 -16 -4 -34 -8
-40 -9 -78 -15 -358 -100 -435 -131 -8 -4 -17 -7 -20 -8 -72 -23 -294 -138
-355 -185 -97 -73 -181 -168 -199 -226 l-6 -20 2425 0 2425 0 -6 20 c-10 31
-60 102 -102 144 -97 97 -318 222 -507 287 -44 15 -87 30 -95 33 -8 3 -19 6
-25 7 -5 1 -31 10 -56 18 -52 18 -268 73 -314 81 -16 3 -41 7 -55 11 -14 3
-41 8 -60 11 -19 3 -42 7 -50 9 -8 2 -28 6 -45 9 -16 3 -48 8 -70 11 -22 3
-60 8 -84 10 -24 3 -51 7 -60 9 -15 5 -40 8 -171 21 -30 3 -77 8 -105 11 -118
14 -728 37 -738 28z m-482 -123 c-3 -3 -11 -6 -18 -7 -280 -48 -512 -157 -663
-310 l-61 -63 -12 25 c-14 32 -14 79 1 107 39 75 250 184 408 212 19 3 44 8
55 10 11 2 34 6 50 9 17 4 71 9 120 12 50 4 91 7 93 9 5 4 32 1 27 -4z m483
-1 c-9 -6 -33 -12 -55 -15 -42 -6 -78 -13 -78 -15 0 -1 -7 -3 -15 -5 -159 -32
-368 -131 -470 -222 -57 -51 -78 -71 -98 -97 l-22 -29 -16 39 c-22 52 -7 100
46 148 78 71 269 149 415 171 17 3 41 7 55 10 14 3 70 8 125 12 55 3 102 7
104 9 2 2 9 4 15 4 6 0 4 -5 -6 -10z m382 -5 c36 -2 76 -7 90 -11 14 -3 32 -6
40 -6 57 -2 209 -49 305 -94 132 -63 180 -113 180 -185 0 -25 -6 -53 -14 -62
-12 -15 -17 -12 -48 26 -130 155 -386 280 -680 331 -33 6 -19 13 19 10 24 -2
72 -6 108 -9z m470 1 c30 -3 55 -5 55 -6 0 -1 18 -3 40 -5 22 -2 51 -6 65 -9
14 -4 39 -9 55 -11 54 -10 159 -46 231 -81 167 -80 213 -146 169 -247 -6 -14
-17 -7 -69 46 -105 109 -227 181 -431 256 -45 16 -206 53 -234 53 -14 0 -18 3
-11 8 6 4 26 6 43 4 18 -2 57 -6 87 -8z"/>
<path d="M1252 5070 c-6 -17 -12 -34 -14 -38 -1 -4 -13 -17 -27 -30 -23 -21
-35 -26 -86 -35 -11 -2 -19 -9 -17 -15 1 -7 -2 -22 -8 -32 -8 -14 -8 -20 0
-20 7 0 8 -5 3 -12 -4 -7 -9 -34 -10 -59 l-3 -46 42 2 c81 3 188 55 188 91 0
7 7 14 15 14 27 0 76 132 53 146 -5 3 -1 12 9 19 24 17 12 27 -34 30 -21 1
-52 5 -69 9 -29 6 -33 4 -42 -24z"/>
<path d="M7925 4920 c3 -5 8 -10 11 -10 2 0 4 5 4 10 0 6 -5 10 -11 10 -5 0
-7 -4 -4 -10z"/>
<path d="M1945 4575 c-5 -2 -37 -8 -70 -15 -68 -15 -176 -67 -218 -105 -35
-33 -67 -96 -67 -132 0 -111 98 -216 239 -257 52 -15 254 -18 277 -4 5 3 38 9
74 13 36 3 101 10 145 15 44 5 105 12 135 15 30 3 78 8 105 11 28 3 73 8 100
10 28 2 75 6 105 9 138 13 170 15 250 20 47 3 103 7 125 9 113 9 313 22 525
32 80 3 168 8 195 9 415 23 1277 23 1785 0 126 -5 336 -16 390 -20 308 -21
460 -32 515 -40 22 -3 67 -7 100 -10 33 -3 78 -8 100 -10 22 -3 69 -7 105 -10
36 -3 76 -7 90 -10 24 -4 61 -9 140 -19 94 -12 136 -19 142 -23 11 -6 117 -5
163 2 260 40 403 196 314 342 -29 47 -142 126 -196 138 -10 2 -45 10 -79 18
-52 12 -441 14 -2770 14 -1490 0 -2713 -1 -2719 -2z"/>
<path d="M4029 4076 c-2 -2 -101 -6 -219 -10 -118 -4 -242 -9 -275 -11 -33 -2
-116 -6 -185 -10 -153 -7 -315 -18 -455 -30 -33 -3 -85 -7 -115 -10 -30 -2
-75 -7 -100 -10 -25 -3 -67 -8 -95 -10 -27 -3 -65 -7 -85 -10 -34 -5 -217 -24
-232 -25 -14 0 -9 -49 6 -57 11 -7 103 -84 140 -118 6 -6 38 -33 71 -60 33
-28 65 -54 71 -60 13 -12 83 -71 234 -200 129 -109 211 -179 248 -212 l25 -23
1596 0 1596 1 66 62 c70 65 260 242 313 290 267 245 386 361 386 373 0 8 -8
14 -17 15 -10 0 -25 2 -33 3 -28 6 -322 33 -450 41 -145 10 -195 14 -195 15 0
0 -36 3 -80 5 -44 2 -125 6 -180 9 -55 3 -147 8 -205 11 -58 3 -150 8 -205 11
-55 3 -147 7 -205 10 -131 5 -1416 14 -1421 10z"/>
<path d="M7757 2942 c-11 -2 -16 -10 -13 -20 4 -16 32 -138 40 -174 3 -13 -7
-19 -46 -27 -27 -6 -53 -11 -58 -11 -8 0 -19 44 -36 135 -8 42 -23 56 -58 53
-22 -2 -30 -8 -27 -18 6 -24 30 -135 35 -164 3 -16 0 -26 -7 -27 -52 -5 -81
-10 -85 -14 -3 -3 0 -17 7 -31 10 -23 16 -26 56 -22 49 3 44 10 60 -77 2 -11
4 -20 5 -20 1 0 3 -13 5 -30 2 -16 6 -40 8 -52 4 -15 0 -27 -12 -35 -10 -7
-19 -16 -19 -21 0 -4 -3 -25 -7 -47 -13 -75 -100 -115 -161 -75 -23 15 -32 35
-16 35 5 0 25 17 46 37 87 87 73 243 -22 243 -76 0 -135 -76 -136 -174 -1 -28
-6 -55 -13 -61 -6 -5 -18 -34 -25 -64 -16 -64 -43 -89 -73 -67 -16 11 -20 26
-19 73 0 55 8 133 18 179 3 14 -4 30 -19 44 -19 18 -31 21 -75 17 -44 -4 -55
-1 -74 18 -30 30 -66 27 -85 -7 -15 -26 -14 -29 12 -56 27 -28 29 -35 29 -118
0 -88 8 -114 34 -114 18 0 27 35 29 117 0 40 3 74 6 76 2 3 20 7 40 11 l36 6
-13 -57 c-18 -78 -18 -177 1 -213 42 -82 162 -60 197 35 14 42 20 43 46 10 42
-53 126 -69 197 -36 44 20 66 41 89 85 l15 30 10 -27 c6 -14 20 -33 33 -41 27
-17 87 -14 99 5 5 8 9 10 9 4 0 -5 11 7 25 27 14 20 25 41 25 46 0 6 15 -5 34
-24 29 -29 37 -32 63 -25 53 15 74 32 91 69 9 20 15 40 14 45 -3 11 16 9 23
-3 14 -22 81 -47 123 -44 51 3 123 41 137 72 5 12 13 22 17 22 4 0 10 22 14
49 5 41 10 50 28 53 26 4 27 24 1 159 -6 34 -5 37 26 48 18 6 35 9 38 6 3 -3
6 -40 7 -82 3 -103 20 -158 57 -189 25 -21 37 -24 65 -19 69 13 100 53 108
140 5 55 -7 85 -35 85 -14 0 -25 -39 -22 -81 1 -23 -5 -44 -17 -59 -19 -23
-20 -23 -45 -7 -18 11 -27 29 -32 59 -4 24 -9 51 -11 61 -1 10 -4 47 -5 83 -2
63 -4 67 -32 79 -24 10 -38 9 -78 -2 -44 -13 -51 -13 -65 1 -24 24 -57 24 -82
-1 -20 -19 -5 -64 25 -78 16 -7 26 -26 37 -72 20 -78 20 -80 -4 -86 -14 -4
-20 -14 -20 -34 0 -57 -20 -103 -53 -123 -41 -25 -78 -25 -108 0 l-24 19 26
23 c33 28 57 66 62 96 2 12 6 24 9 28 4 3 5 11 3 17 -3 7 -7 25 -9 41 -15 87
-96 114 -158 52 -31 -32 -49 -92 -48 -159 1 -55 -14 -169 -25 -187 -9 -14 -40
-13 -53 3 -6 7 -14 28 -17 47 -3 19 -8 43 -11 52 -3 9 -7 27 -9 40 -3 13 -12
56 -21 96 -9 42 -13 77 -8 82 5 5 23 11 41 14 18 4 45 11 60 17 15 6 29 10 31
10 23 -7 43 3 48 24 13 51 3 54 -93 29 -48 -13 -94 -24 -100 -24 -11 0 -18 16
-27 61 -22 111 -27 124 -53 131 -10 2 -26 2 -36 0z m403 -297 c11 -30 8 -69
-10 -107 -27 -58 -52 -19 -45 69 2 24 6 47 10 53 11 18 35 10 45 -15z m-334
-90 c18 -79 20 -103 10 -115 -7 -8 -13 -30 -15 -49 -9 -105 -69 -125 -86 -28
-10 60 -14 81 -34 182 -10 50 -17 92 -15 94 6 7 70 19 94 18 23 -2 26 -9 46
-102z m-371 -64 c10 -49 -25 -141 -55 -141 -12 0 -11 109 1 132 24 45 45 49
54 9z"/>
<path d="M1924 2874 c-77 -38 -69 -153 13 -182 95 -32 173 97 100 166 -30 28
-75 35 -113 16z m69 -58 c23 -18 22 -42 -5 -60 -27 -19 -58 -5 -58 27 0 42 30
58 63 33z"/>
<path d="M1288 2793 c-41 -6 -114 -77 -144 -141 -33 -70 -38 -177 -11 -229 35
-66 100 -106 192 -118 98 -12 119 -17 142 -32 42 -28 42 -92 0 -115 -12 -6
-36 -11 -53 -10 -26 1 -33 -3 -36 -23 -7 -32 5 -48 37 -52 42 -6 91 15 124 52
22 25 31 30 35 19 7 -18 40 -18 56 1 10 13 7 31 -20 101 -37 94 -45 169 -23
222 24 59 32 49 97 -123 24 -65 50 -125 59 -135 15 -18 51 -18 62 0 5 8 -9 58
-26 95 -26 57 -37 108 -35 157 3 58 21 101 39 95 6 -2 24 -37 40 -78 16 -41
33 -85 39 -99 29 -75 57 -116 89 -131 18 -9 38 -16 44 -15 32 6 63 21 83 39
17 16 25 18 34 9 15 -15 43 -15 85 0 44 16 66 -1 39 -31 -16 -18 -16 -20 0
-36 17 -17 19 -16 41 11 41 51 40 144 -1 144 -11 0 -13 7 -7 28 10 38 6 73
-10 83 -20 13 -39 11 -40 -3 -1 -7 -2 -26 -4 -43 -1 -16 -3 -37 -4 -46 -4 -57
-64 -62 -77 -6 -4 18 -9 39 -11 47 -2 8 -6 25 -8 37 -10 67 -34 101 -68 98
-17 -2 -22 -8 -21 -31 0 -16 -4 -32 -9 -36 -6 -3 -9 -33 -8 -66 1 -45 -2 -64
-15 -77 -15 -15 -18 -15 -33 0 -26 25 -21 132 8 179 25 40 82 76 121 76 16 0
12 18 -10 40 -16 16 -24 18 -52 8 -45 -15 -97 -55 -117 -89 -20 -36 -29 -36
-42 -2 -17 44 -39 63 -75 63 -37 0 -71 -29 -81 -70 -9 -39 -12 -40 -38 -14
-40 39 -92 28 -120 -26 -8 -16 -15 -39 -15 -52 -1 -23 -1 -22 -15 3 -16 30
-59 43 -76 23 -9 -11 -5 -28 15 -75 31 -71 31 -73 9 -64 -18 8 -50 13 -108 19
-119 12 -175 60 -175 151 0 63 37 144 78 174 104 74 136 -112 34 -197 -26 -22
-27 -23 -8 -37 35 -26 64 -18 95 25 99 137 37 323 -101 303z"/>
<path d="M6240 2750 c-11 -11 -25 -31 -29 -43 -5 -12 -8 -113 -8 -224 0 -191
-1 -203 -22 -228 -11 -15 -21 -33 -21 -41 0 -7 -12 -26 -26 -43 -41 -49 -95
-36 -110 26 -5 19 -1 30 18 47 93 79 90 224 -4 240 -26 4 -98 -33 -106 -55 -2
-5 -7 -9 -11 -9 -11 0 -8 134 4 142 7 5 7 8 0 8 -5 0 -9 19 -7 42 7 120 1 138
-47 138 l-26 0 -1 -93 c-6 -373 -5 -361 -40 -436 -35 -73 -68 -97 -78 -57 -2
11 -3 80 0 152 4 121 2 132 -16 152 -38 41 -113 28 -141 -24 -15 -29 -33 -32
-26 -5 7 27 -54 74 -67 52 -3 -4 -7 -50 -10 -101 -4 -52 -10 -96 -14 -99 -5
-3 -12 -18 -15 -33 -9 -33 -60 -85 -90 -90 -35 -6 -76 9 -97 34 l-18 23 36 19
c70 35 122 111 122 179 0 32 -30 77 -55 83 -40 10 -90 -4 -117 -34 -36 -38
-59 -77 -51 -85 3 -4 2 -7 -3 -7 -9 0 -12 -14 -18 -90 -4 -50 17 -103 57 -141
21 -22 43 -37 47 -34 5 3 11 1 14 -3 3 -5 30 -8 61 -7 40 2 66 10 95 28 l39
26 -5 -23 c-3 -16 2 -26 19 -33 45 -20 52 -6 61 135 3 51 11 83 27 110 30 50
60 82 76 82 15 0 16 -9 13 -110 -7 -180 -6 -188 17 -212 32 -31 90 -32 122 -1
31 28 37 29 44 3 5 -18 52 -39 63 -27 3 3 7 49 10 103 6 117 16 154 56 200 34
39 53 43 68 13 18 -32 2 -75 -45 -122 -41 -42 -43 -47 -35 -81 10 -45 33 -81
64 -101 25 -17 96 -26 96 -13 0 4 6 8 13 8 15 1 57 35 57 48 0 5 7 15 15 22
12 10 15 10 15 -3 0 -24 54 -72 83 -75 14 -1 30 -3 34 -4 10 -3 83 32 83 41 1
3 10 17 20 30 l20 23 21 -26 c11 -14 36 -33 55 -42 59 -28 109 -24 184 15 24
13 71 96 72 127 1 48 -1 54 -21 54 -21 0 -34 -14 -38 -43 -9 -56 -63 -107
-113 -107 -26 0 -77 26 -82 42 -3 7 16 26 41 43 74 51 107 143 75 210 -11 25
-26 37 -48 43 -43 12 -64 4 -105 -37 -37 -37 -55 -80 -66 -160 -7 -49 -35
-110 -58 -130 -73 -60 -114 45 -63 161 51 116 70 201 69 312 -1 61 -5 84 -20
105 -27 35 -83 41 -113 11z m73 -127 c1 -93 -19 -213 -35 -213 -6 0 0 270 6
286 13 35 29 -5 29 -73z m-1007 -188 c11 -28 -6 -83 -36 -115 -40 -43 -51 -32
-35 35 17 75 57 119 71 80z m1274 -54 c0 -42 -35 -104 -62 -109 -14 -3 -16 3
-13 35 9 71 17 93 37 108 29 19 38 11 38 -34z"/>
<path d="M2605 2740 c-44 -17 -71 -68 -54 -101 5 -10 0 -48 -13 -99 -19 -74
-19 -83 -5 -97 19 -19 47 -10 47 15 0 10 7 40 16 66 l16 47 25 -28 c45 -48 59
-101 39 -145 -9 -21 -24 -22 -63 -7 -15 6 -30 11 -33 11 -3 1 -19 7 -36 14
-48 20 -72 -9 -47 -58 29 -59 124 -78 199 -40 63 31 92 35 103 13 14 -25 65
-45 97 -37 14 4 36 18 49 32 l23 25 30 -30 c24 -25 35 -29 66 -25 20 2 45 0
54 -5 27 -14 43 2 48 45 2 22 8 58 15 81 7 28 8 47 1 59 -19 33 60 153 92 141
14 -5 15 -25 12 -145 -5 -180 7 -198 129 -197 l60 0 6 50 c4 28 12 63 18 78 7
18 8 35 2 46 -19 35 61 160 95 147 13 -5 15 -20 10 -99 -13 -189 -8 -219 40
-238 31 -11 68 -5 101 16 24 16 40 12 63 -16 28 -34 131 -37 185 -7 63 37 110
121 88 157 -18 28 -37 17 -61 -32 -42 -87 -128 -112 -181 -51 l-23 28 45 22
c80 41 127 123 113 197 -5 27 -14 39 -42 52 -66 31 -131 -5 -174 -98 -24 -50
-28 -69 -25 -123 3 -56 1 -66 -18 -79 -33 -23 -45 -4 -41 68 13 203 12 217 -7
241 -37 47 -104 37 -148 -21 l-20 -28 -1 26 c0 29 -26 57 -52 56 -21 0 -20 4
-23 -72 -2 -33 -4 -60 -5 -60 -1 0 -3 -40 -6 -89 -4 -86 -13 -111 -39 -102 -6
1 -10 61 -10 150 l-1 148 -27 24 c-21 18 -36 23 -58 19 -30 -5 -69 -25 -69
-35 0 -3 -9 -16 -19 -29 l-18 -23 2 31 c2 33 -11 49 -44 56 -25 5 -28 -6 -31
-110 -2 -44 -4 -98 -5 -120 -1 -22 -3 -52 -4 -67 -1 -21 -6 -28 -21 -28 -24 0
-22 -10 -25 162 -2 149 -8 168 -54 168 l-26 0 1 -112 c2 -116 -8 -162 -43
-200 -9 -10 -24 -18 -34 -18 -20 0 -44 36 -30 44 5 3 14 20 20 36 8 26 7 33
-11 50 -20 18 -20 22 -8 82 7 35 17 70 21 79 15 30 -25 47 -58 26 -21 -13 -47
-138 -48 -224 0 -28 -4 -43 -12 -43 -8 0 -13 13 -13 29 0 44 -15 77 -65 141
-41 51 -45 60 -35 84 21 57 0 93 -45 76z m1295 -194 c0 -57 -62 -146 -80 -116
-9 15 15 105 33 126 20 23 47 17 47 -10z"/>
<path d="M4303 2572 c-93 -93 -113 -287 -37 -354 25 -21 87 -38 116 -31 13 4
37 15 53 27 21 15 46 21 84 22 46 0 55 -3 69 -24 9 -14 30 -31 48 -38 30 -13
43 -13 90 1 20 6 21 3 17 -35 -3 -34 -14 -51 -68 -104 -54 -54 -65 -71 -70
-109 -9 -61 1 -103 32 -127 34 -26 87 -26 113 0 35 35 42 61 55 195 6 69 7 71
63 126 32 31 70 81 85 110 24 47 25 55 13 73 -7 12 -17 20 -22 20 -4 -1 -26
-30 -47 -65 -21 -35 -48 -72 -59 -83 -22 -20 -22 -34 -3 134 12 98 9 130 -11
145 -38 29 -51 13 -58 -73 -9 -102 -5 -91 -44 -137 -19 -22 -59 -19 -73 6 -23
43 6 158 51 200 30 29 77 49 114 47 46 -2 61 12 42 37 -21 30 -95 29 -156 -2
-74 -37 -115 -99 -135 -205 -6 -31 -15 -38 -46 -38 -16 0 -29 1 -29 3 0 1 6
25 14 52 22 84 9 173 -30 204 -13 11 -30 18 -37 17 -55 -12 -79 -54 -78 -142
0 -50 6 -72 26 -105 25 -39 26 -41 8 -54 -27 -20 -62 -14 -82 15 -13 18 -17
41 -16 85 1 33 4 61 5 63 3 2 7 16 9 30 0 5 15 29 31 54 30 45 32 71 4 82 -8
3 -26 -7 -41 -22z m140 -91 c6 -23 0 -99 -9 -120 -5 -13 -8 -11 -14 9 -10 32
-12 115 -3 123 11 12 21 8 26 -12z m283 -528 c-10 -85 -11 -92 -23 -104 -32
-32 -45 48 -17 104 38 74 48 73 40 0z"/>
</g>
</svg>
